<?xml version="1.0" encoding="UTF-8"?>
<!DOCTYPE svg  PUBLIC '-//W3C//DTD SVG 1.1//EN'  'http://www.w3.org/Graphics/SVG/1.1/DTD/svg11.dtd'>
<svg enable-background="new 0 0 300 100" version="1.1" viewBox="0 0 300 100" xml:space="preserve" xmlns="http://www.w3.org/2000/svg">
	<path d="m44.79 8.56c21.79 0 39.46 17.67 39.46 39.46s-17.67 39.45-39.46 39.45-39.46-17.66-39.46-39.45 17.67-39.46 39.46-39.46z" fill="#fff"/>
	<path d="m44.79 3.22c-24.74 0-44.79 20.06-44.79 44.8 0 24.73 20.06 44.78 44.8 44.78s44.79-20.05 44.79-44.79-20.06-44.79-44.8-44.79zm0 86.67c-23.09 0-41.88-18.79-41.88-41.88s18.79-41.88 41.88-41.88 41.88 18.79 41.88 41.88-18.79 41.88-41.88 41.88z" fill="#fff"/>
	<path d="m33.06 50.99l2.35 0.01 0.01-2.47 4.41-5.02h-2.97l-2.6 3.03-2.8-3.02h-2.95l4.55 4.96v2.51z" fill="#333"/>
	<path d="m53.25 47.12c-0.95 0.01-6.91 0-6.91 0l0.02 3.87h2.32v-1.86h3.23l2.25 1.87h3.27l-2.55-2.24s0.56-0.3 1.06-0.75c0.32-0.29 0.62-0.72 0.68-1.14 0.57-3.36-3.37-3.36-3.61-3.35h-12.28l-1.44 1.93-0.01 0.01h3.02v5.58h2.41v-5.53h8.49c0.7 0 1.1 0.45 1.09 0.77 0.03 0.25-0.3 0.84-1.04 0.84z" fill="#333"/>
	<path d="m81.67 43.52h-2.97l-2.63 2.77-2.7-2.78-3.03 0.02 3.73 3.78-3.48 3.68h2.91l2.57-2.66 2.51 2.66h2.91l-3.47-3.67 3.65-3.8z" fill="#333"/>
	<path d="M18.8,43.53h-0.02V51h2.34v-2.52l3.53,2.51h3.48l-5.25-3.7l5.2-3.77h-3.45l-3.53,2.59v-2.58H18.8z" fill="#333"/>
	<path d="m61.24 51.02h8.72l-4.4-6.4s-0.75-1.1-1.74-1.1h-0.06c-0.96 0-1.85 1.44-1.85 1.44l-4.32 6.05h2.85l3.37-4.6 1.91 2.68h-3.11l-1.37 1.93z" fill="#333"/>
	<path d="m50.3 65.03h9c0.74-0.03 0.76-0.59 0.76-0.59 0.04-0.72-0.8-0.72-0.8-0.72l-8.62-0.02c0.02-0.17 0.04-0.35 0.05-0.52h10.23c0.74-0.03 0.76-0.59 0.76-0.59 0.04-0.72-0.8-0.72-0.8-0.72l-10.28-0.02c-0.03-0.19-0.08-0.38-0.13-0.57h12.09c0.74-0.03 0.76-0.6 0.76-0.6 0.04-0.71-0.8-0.72-0.8-0.72l-12.62-0.02c-1.06-1.8-2.99-2.92-5.08-2.92s-4.02 1.12-5.08 2.92l-12.73 0.02s-0.84 0.01-0.8 0.72c0 0 0.02 0.56 0.76 0.6h12.19c-0.05 0.19-0.1 0.38-0.13 0.57l-10.38 0.02s-0.84 0-0.8 0.72c0 0 0.02 0.56 0.76 0.59h10.33c0.01 0.18 0.03 0.35 0.05 0.52l-8.74 0.01s-0.84 0-0.8 0.72c0 0 0.02 0.56 0.76 0.59h9.1c0.88 2.27 3.06 3.77 5.5 3.77 2.43 0 4.61-1.49 5.49-3.76zm-35.24-15.96l-5.55 0.04-1.5 1.91h4.11s3.1 0.08 3.74-0.1c2.44-0.6 2.6-2.56 1.71-3.75s-2.71-1.1-2.71-1.1l-3.97 0.01c-0.13 0.01-0.34-0.1-0.27-0.37 0.06-0.27 0.49-0.24 0.49-0.24l5.25-0.01 1.48-1.92s-4.83-0.06-6.96 0.01-3.33 1.66-2.69 3.06 2.62 1.39 2.62 1.39l4.25 0.05c0.75 0 0.89 0.46 0.81 0.64-0.16 0.34-0.81 0.38-0.81 0.38z" fill="#333"/>
<g fill="#fff">
	<path d="m116.95 18.72c-0.17 1.24-0.03 1.94 0.25 2.6h-2.63c-0.37-0.53-0.5-1.3-0.33-2.54l0.81-5.74c0.16-1.13-0.3-1.81-1.36-1.81-0.88 0-1.69 0.55-2.11 1.19l-0.89 6.29c-0.19 1.32 0.04 2.1 0.25 2.6h-2.63c-0.37-0.53-0.49-1.37-0.32-2.6l1.49-10.58c0.14-1.02-0.55-0.95-1.08-0.95h-3.6l-1.62 11.51c-0.18 1.26 0.02 2.05 0.23 2.63h-2.74c-0.41-0.55-0.55-1.3-0.37-2.56l1.62-11.55h-2.17c-2.19 0-2.46-1.65-2.46-1.65h13.18c1.08 0 1.99 0.48 1.73 2.32l-0.43 3.09c0.08-0.09 0.2-0.18 0.3-0.27 0.72-0.7 1.78-1.21 2.84-1.21 1.94 0 3.12 1.35 2.87 3.16l-0.83 6.07z"/>
	<path d="m127.73 20.46c-0.74 0.55-2.06 1.13-3.67 1.13-3.16 0-4.73-2.63-4.49-5.78 0.46-3.47 2.96-6.32 6.3-6.32 2.45 0 3.57 1.15 3.33 2.89-0.25 1.77-1.56 2.48-3.32 3.22-0.54 0.24-3.28 1.48-3.37 2.14-0.14 0.97 0.45 2.58 1.74 2.58 1.15 0 2.04-0.71 2.86-1.81l0.62 1.95zm-5.16-4.59c-0.01 0.09-0.03 0.2-0.04 0.29 0.49-0.51 1.19-0.93 1.92-1.39 1.14-0.71 2-1.21 2.19-2.54 0.13-0.9-0.34-1.48-1.16-1.48-1.48 0-2.59 2.87-2.91 5.12z"/>
	<path d="m156.5 5.56c0.07 0.44 0.03 0.86-0.02 1.21-0.1 0.68-0.45 1.61-0.8 2.41-0.48 1.06-0.95 2.05-1.4 3.03-0.88 1.83-1.72 3.62-2.52 5.7-0.42 1.1-0.65 1.94-0.76 2.72-0.04 0.24-0.06 0.46-0.08 0.71h-2.87c-0.53-0.46-1.03-1.15-1.4-3.4-0.22-1.39-0.75-5.63-0.77-5.83-0.78 1.9-1.6 3.84-2.23 5.52-0.57 1.5-0.85 2.61-0.95 3.31-0.02 0.15-0.04 0.29-0.03 0.4h-2.89c-0.72-0.86-1.07-1.68-1.4-3.89l-1.82-11.88h3.03s1.6 10.75 1.66 11.31c0.04 0.33 0.23 1.06 0.23 1.06 0.22-1.26 1.21-3.71 2.02-5.41 0.53-1.13 1.34-2.92 1.53-4.26 0.18-1.26-0.01-1.99-0.28-2.69h3.16s1.42 11.28 1.5 11.79c0.04 0.22 0.14 0.75 0.14 0.75 0.37-2.34 2.2-6.36 3.11-8.88 0.33-0.93 0.52-1.63 0.59-2.19 0.1-0.66 0.06-1.19-0.01-1.48l3.26-0.01z"/>
	<path d="m155.48 15.56c0.5-3.58 2.88-6.07 6.24-6.07s5.05 2.56 4.56 6.07c-0.47 3.33-2.88 6.03-6.21 6.03-3.54 0-5.06-2.69-4.59-6.03zm7.73-0.04c0.02-0.17 0.05-0.35 0.07-0.53 0.31-2.19 0.17-4.19-1.66-4.24-1.85-0.04-2.74 2.36-3.06 4.64-0.28 1.86-0.21 4.95 1.67 4.95 1.86-0.01 2.71-3.05 2.98-4.82z"/>
	<path d="m171.57 9.71l-0.18 1.24c0.65-0.68 1.53-1.46 2.57-1.46 0.95 0 1.49 0.4 1.8 0.82l-1.07 2.14c-0.44-0.66-1.03-1.19-1.78-1.19-0.86 0-1.69 0.84-1.82 1.79l-0.81 5.79c-0.18 1.26 0.05 1.99 0.27 2.5h-2.63c-0.39-0.53-0.48-1.44-0.33-2.54l1.27-9.08 2.71-0.01z"/>
	<path d="m178.9 18.72c-0.18 1.3 0.04 2.07 0.23 2.6h-2.6c-0.37-0.53-0.49-1.37-0.32-2.6l1.49-10.58c0.18-1.28-0.07-2.17-0.26-2.58h2.63c0.37 0.53 0.49 1.35 0.32 2.58l-1.49 10.58z"/>
	<path d="m192.1 5.56c0.39 0.55 0.51 1.39 0.34 2.63l-1.56 11.09c-0.81 1.19-2.67 2.32-4.67 2.32-3.64 0-5.25-2.71-4.83-5.72 0.42-3 2.27-6.38 6.18-6.38 0.82 0 1.51 0.27 1.92 0.67l0.28-1.97c0.18-1.26-0.02-2.05-0.25-2.63h2.59zm-2.9 6.49c-0.18-0.77-0.79-1.3-1.56-1.3-1.59 0-2.71 1.63-3.21 5.23-0.4 2.87 0.31 4.35 2.13 4.35 0.62 0 1.35-0.46 1.64-1.1l1-7.18z"/>
	<path d="m194.55 11.12c0.08-2.47 0.08-4.02 0.07-4.55-0.01-0.13 0-0.2 0-0.2 0.07-0.53 0.74-0.99 1.51-0.99 0.75 0 1.31 0.46 1.23 0.99l-1.24 4.75h-1.57z"/>
	<path d="m198.11 18.5c0.62 1.13 1.29 1.83 2.17 1.83 0.97 0 1.64-0.66 1.78-1.63 0.14-1.04-0.35-1.88-1.69-2.92-1.65-1.3-2.3-2.29-2.13-3.51 0.27-1.94 2.05-2.78 3.86-2.78 1.2 0 2.36 0.31 3.46 0.97l-1.14 1.99c-0.91-1.26-1.57-1.7-2.21-1.7-0.73 0-1.23 0.44-1.33 1.1-0.1 0.73 0.35 1.3 1.41 2.1 1.62 1.19 2.74 2.36 2.48 4.15-0.29 2.1-2.41 3.49-4.55 3.49-1.3 0-2.43-0.42-3.31-1.13l1.2-1.96z"/>
</g>
<path d="m99.59 29.05h5.65c1 0 1.81 0.1 2.43 0.29s1.09 0.49 1.41 0.87c0.32 0.39 0.51 0.87 0.56 1.44 0.06 0.57 0.03 1.23-0.08 1.98l-0.87 6.24c-0.14 0.89-0.38 1.62-0.73 2.18-0.35 0.57-0.88 1.02-1.6 1.35 0.67 0.33 1.11 0.8 1.35 1.39 0.23 0.6 0.28 1.34 0.15 2.22l-0.87 6.19c-0.11 0.75-0.28 1.43-0.5 2.04s-0.54 1.13-0.96 1.56-0.96 0.76-1.62 1-1.5 0.35-2.49 0.35h-5.9l4.07-29.1zm2.04 25.44c0.5 0 0.86-0.11 1.08-0.33s0.38-0.57 0.46-1.04l0.87-6.35c0.06-0.47 0.01-0.85-0.15-1.12-0.15-0.28-0.5-0.42-1.06-0.42h-1.66l-1.29 9.27h1.75v-0.01zm1.29-21.74l-1.25 8.9h1.62c0.61 0 1.02-0.19 1.23-0.56 0.21-0.38 0.35-0.88 0.44-1.52l0.71-4.95c0.08-0.64 0.07-1.11-0.04-1.41s-0.46-0.46-1.04-0.46h-1.67z" fill="#fff"/>
<path d="m114.02 54.49h4.99l-0.5 3.66h-8.85l4.08-29.09h8.85l-0.54 3.7h-4.99l-1.25 8.9h4.32l-0.5 3.57h-4.32l-1.29 9.26z" fill="#fff"/>
<path d="m128.78 50.13c0.19-1.33 0.17-2.4-0.06-3.2s-0.57-1.47-1-2-0.92-1-1.45-1.42c-0.54-0.42-1.03-0.91-1.46-1.48s-0.76-1.29-0.98-2.16-0.22-2.04 0-3.51l0.37-2.54c0.11-0.75 0.3-1.44 0.56-2.08s0.63-1.19 1.1-1.64c0.47-0.46 1.07-0.82 1.79-1.08s1.59-0.39 2.62-0.39 1.86 0.13 2.52 0.39c0.65 0.26 1.15 0.62 1.5 1.08s0.57 1 0.67 1.64 0.09 1.33-0.02 2.08l-0.5 3.53h-3.87l0.5-3.53c0.05-0.5 0-0.91-0.17-1.23s-0.54-0.48-1.12-0.48c-0.55 0-0.96 0.16-1.23 0.48-0.26 0.32-0.42 0.73-0.48 1.23l-0.33 2.41c-0.17 1.17-0.12 2.08 0.12 2.74 0.25 0.67 0.59 1.23 1.02 1.68 0.43 0.46 0.92 0.89 1.46 1.31s1.02 0.94 1.43 1.58c0.42 0.64 0.72 1.46 0.92 2.47 0.19 1.01 0.18 2.35-0.04 4.01l-0.46 3.36c-0.22 1.5-0.79 2.73-1.7 3.7s-2.38 1.46-4.41 1.46c-1.03 0-1.86-0.13-2.52-0.38-0.65-0.25-1.15-0.6-1.5-1.06s-0.56-1-0.65-1.64c-0.08-0.64-0.07-1.33 0.04-2.08l0.54-3.99h3.87l-0.54 3.94c-0.08 0.5-0.04 0.92 0.15 1.25 0.18 0.33 0.55 0.5 1.1 0.5 0.58 0 1-0.17 1.25-0.5s0.42-0.75 0.5-1.25l0.46-3.2z" fill="#fff"/>
<path d="m140.08 58.14h-3.87l3.53-25.4h-3.24l0.54-3.7h10.39l-0.54 3.7h-3.28l-3.53 25.4z" fill="#fff"/>
<path d="m154.72 29.05h3.87l-4.07 29.09h-3.87l4.07-29.09z" fill="#fff"/>
<path d="m167.86 49.17c0.14-1.75 0.31-3.56 0.52-5.45s0.44-3.7 0.69-5.45l1.29-9.23h3.49l-4.07 29.09h-3.66l-2.12-20.07c-0.14 1.72-0.3 3.51-0.5 5.36-0.19 1.86-0.42 3.7-0.67 5.53l-1.29 9.18h-3.49l4.07-29.09h3.7l2.04 20.13z" fill="#fff"/>
<path d="m173.31 58.14l4.07-29.09h8.65l-0.54 3.7h-4.78l-1.25 8.9h4.12l-0.5 3.57h-4.12l-1.79 12.92h-3.86z" fill="#fff"/>
<path d="m188.73 29.05h3.87l-3.58 25.44h3.99l-0.5 3.66h-7.86l4.08-29.1z" fill="#fff"/>
<path d="m198.66 29.05h3.87l-4.07 29.09h-3.87l4.07-29.09z" fill="#fff"/>
<path d="m209.22 41.65h5.4l-1.62 11.72c-0.11 0.75-0.3 1.44-0.56 2.08s-0.63 1.18-1.1 1.64-1.07 0.82-1.81 1.08-1.63 0.39-2.68 0.39-1.91-0.13-2.56-0.39-1.14-0.62-1.48-1.08c-0.33-0.46-0.54-1-0.62-1.64s-0.07-1.33 0.04-2.08l2.74-19.49c0.11-0.75 0.29-1.45 0.54-2.1s0.61-1.21 1.08-1.66c0.47-0.46 1.07-0.82 1.79-1.08s1.61-0.39 2.66-0.39c1.03 0 1.87 0.13 2.54 0.39s1.17 0.62 1.52 1.08 0.56 1.01 0.64 1.66 0.07 1.35-0.04 2.1l-0.5 3.49h-3.82l0.5-3.53c0.06-0.5-0.02-0.91-0.21-1.23s-0.57-0.48-1.12-0.48c-0.56 0-0.96 0.16-1.23 0.48s-0.42 0.73-0.48 1.23l-2.74 19.49c-0.08 0.56-0.04 0.99 0.14 1.31s0.55 0.48 1.1 0.48 0.97-0.16 1.25-0.48 0.46-0.75 0.54-1.31l1.12-8.1h-1.54l0.51-3.58z" fill="#fff"/>
<path d="m219.33 58.14h-3.87l4.07-29.09h3.87l-1.79 12.6h3.12l1.79-12.6h3.87l-4.07 29.09h-3.87l1.79-12.92h-3.12l-1.79 12.92z" fill="#fff"/>
<path d="m235.5 58.14h-3.87l3.53-25.4h-3.24l0.54-3.7h10.4l-0.54 3.7h-3.29l-3.53 25.4z" fill="#fff"/>
<path d="m95.78 89.02h4.99l-0.5 3.66h-8.86l4.07-29.1h8.85l-0.54 3.7h-4.99l-1.25 8.9h4.32l-0.5 3.57h-4.32l-1.27 9.27z" fill="#fff"/>
<path d="m112.99 83.7c0.14-1.75 0.31-3.56 0.52-5.45s0.44-3.7 0.69-5.45l1.29-9.23h3.49l-4.08 29.1h-3.66l-2.12-20.08c-0.14 1.72-0.31 3.51-0.5 5.36-0.19 1.86-0.42 3.7-0.67 5.53l-1.29 9.19h-3.49l4.07-29.1h3.7l2.05 20.13z" fill="#fff"/>
<path d="m124.09 92.68h-3.87l3.53-25.4h-3.24l0.54-3.7h10.39l-0.54 3.7h-3.28l-3.53 25.4z" fill="#fff"/>
<path d="m133.82 89.02h4.99l-0.5 3.66h-8.85l4.07-29.1h8.86l-0.54 3.7h-4.99l-1.25 8.9h4.32l-0.5 3.57h-4.32l-1.29 9.27z" fill="#fff"/>
<path d="m145.29 63.58h5.82c1 0 1.79 0.12 2.39 0.35 0.6 0.24 1.04 0.58 1.35 1.02 0.3 0.44 0.48 0.97 0.54 1.58s0.03 1.29-0.08 2.04l-0.96 6.94c-0.19 1.25-0.52 2.27-0.98 3.06s-1.24 1.34-2.35 1.64c0.42 2.08 0.82 4.16 1.23 6.24s0.8 4.16 1.19 6.24h-4.2c-0.31-2.05-0.62-4.1-0.93-6.13-0.32-2.04-0.63-4.1-0.94-6.17h-0.58l-1.71 12.31h-3.87l4.08-29.12zm3.66 13.26c0.53 0 0.91-0.12 1.14-0.37 0.24-0.25 0.38-0.61 0.44-1.08l0.92-6.65c0.17-0.97-0.24-1.46-1.21-1.46h-1.62l-1.33 9.56h1.66z" fill="#fff"/>
<path d="m160.76 92.68h-3.87l3.53-25.4h-3.24l0.54-3.7h10.39l-0.54 3.7h-3.28l-3.53 25.4z" fill="#fff"/>
<path d="m175.77 92.68h-3.91l0.29-5.99h-3.24l-1.37 5.99h-3.91l7.69-29.1h4.9l-0.45 29.1zm-2.66-24.36c-0.55 2.44-1.12 4.9-1.7 7.4s-1.12 4.96-1.62 7.4h2.49c0.08-2.44 0.2-4.91 0.35-7.42 0.15-2.52 0.31-4.97 0.48-7.38z" fill="#fff"/>
<path d="m181.92 63.58h3.87l-4.07 29.1h-3.87l4.07-29.1z" fill="#fff"/>
<path d="m195.06 83.7c0.14-1.75 0.31-3.56 0.52-5.45s0.44-3.7 0.69-5.45l1.29-9.23h3.49l-4.07 29.1h-3.66l-2.12-20.08c-0.14 1.72-0.3 3.51-0.5 5.36-0.19 1.86-0.42 3.7-0.66 5.53l-1.29 9.19h-3.49l4.07-29.1h3.7l2.03 20.13z" fill="#fff"/>
<path d="m207.24 92.68l-0.5-22.41-1.83 16.42-0.83 5.99h-3.58l4.07-29.1h4.74l0.29 21.29 6.28-21.29h4.74l-4.07 29.1h-3.58l0.83-5.99 2.74-16.42-6.74 22.41h-2.56z" fill="#fff"/>
<path d="m224.45 89.02h4.99l-0.5 3.66h-8.86l4.07-29.1h8.86l-0.54 3.7h-4.99l-1.25 8.9h4.32l-0.5 3.57h-4.32l-1.28 9.27z" fill="#fff"/>
<path d="m241.66 83.7c0.14-1.75 0.31-3.56 0.52-5.45s0.44-3.7 0.69-5.45l1.29-9.23h3.49l-4.08 29.1h-3.66l-2.12-20.08c-0.14 1.72-0.3 3.51-0.5 5.36-0.19 1.86-0.41 3.7-0.66 5.53l-1.29 9.19h-3.49l4.07-29.1h3.7l2.04 20.13z" fill="#fff"/>
<path d="m252.76 92.68h-3.87l3.54-25.4h-3.24l0.54-3.7h10.39l-0.54 3.7h-3.29l-3.53 25.4z" fill="#fff"/>
<path d="m33.43 11.66s2.08-0.67 3.17-0.57c0.44 0.03 0.82 0.34 1.09 0.66 0.6 0.76 0.8 1.73 1.03 2.65 0.18 0.88 0.4 1.88-0.09 2.69-0.48 0.7-1.35 0.94-2.14 1.1-0.46 0.11-0.91 0.22-1.37 0.33-0.01-0.04-0.04-0.12-0.05-0.16-0.52-2.23-1.64-6.7-1.64-6.7m1.3 0.57c0.38 1.68 0.83 3.35 1.24 5.02l0.04 0.2c0.41-0.1 0.83-0.21 1.23-0.34 0.48-0.22 0.59-0.8 0.56-1.28-0.06-0.83-0.23-1.65-0.51-2.43-0.13-0.47-0.37-0.94-0.74-1.26-0.57-0.38-1.23-0.02-1.82 0.09"/>
<path d="m26.76 14.71c0.34-0.15 0.66-0.33 0.99-0.49 0.82 1.72 1.66 3.43 2.49 5.14l0.18 0.36c0.82-0.39 1.63-0.78 2.45-1.18 0.16 0.31 0.4 0.88 0.4 0.88s-2.28 1.12-3.44 1.65c-1.01-2.12-2.05-4.23-3.07-6.36"/>
<path d="m22.25 17.52c0.35-0.24 0.79-0.41 1.23-0.33 0.43 0.06 0.77 0.36 1.07 0.65 0.41 0.53 0.72 1.23 0.45 1.89-0.07 0.11-0.15 0.21-0.23 0.32 0.32-0.12 0.7-0.23 1.03-0.07 0.34 0.18 0.58 0.49 0.84 0.76 0.22 0.29 0.44 0.58 0.67 0.85 0.15 0.17 0.33 0.34 0.57 0.36l0.13 0.02c-0.34 0.31-0.72 0.58-1.07 0.85-0.32-0.35-0.67-0.77-1.01-1.17-0.29-0.35-0.57-0.77-1.04-0.88-0.59 0.04-0.99 0.53-1.46 0.83 0.61 0.81 1.21 1.64 1.85 2.43-0.28 0.25-0.6 0.46-0.89 0.7-0.73-0.83-1.31-1.79-2-2.65-0.75-1-1.54-1.98-2.27-3 0.73-0.5 1.42-1.04 2.13-1.56m-0.1 1.11c-0.23 0.16-0.44 0.32-0.6 0.45 0 0 0.91 1.28 1.4 1.85 0.35-0.29 0.76-0.54 1.04-0.9 0.18-0.27 0.19-0.59 0.05-0.92-0.18-0.31-0.44-0.59-0.74-0.78-0.4-0.14-0.8 0.06-1.15 0.3"/>
<path d="m15.33 23.95c0.4-0.76 1.26-1.35 2.14-1.14 1.28 0.3 2.31 1.2 3.23 2.11 0.54 0.53 0.99 1.21 1.04 1.98-0.02 0.77-0.5 1.47-1.12 1.9-0.44 0.31-1.01 0.33-1.52 0.23-0.74-0.19-1.37-0.66-1.97-1.11-0.81-0.64-1.6-1.38-1.99-2.36-0.2-0.54-0.12-1.14 0.19-1.61m0.75 0.41c-0.23 0.38-0.05 0.81 0.18 1.14 0.01 0.01 0.25 0.32 0.33 0.4 0.8 0.79 1.64 1.59 2.69 2.06 0.39 0.18 0.91 0.19 1.22-0.16 0.33-0.32 0.35-0.85 0.12-1.23-0.26-0.44-0.65-0.77-1.01-1.13-0.72-0.68-1.8-1.54-2.41-1.64-0.34-0.11-0.96 0.13-1.12 0.56"/>
<path d="m12.05 28.69c1.91 1.39 3.81 2.81 5.73 4.19l0.08 0.06c-0.16 0.4-0.38 0.76-0.51 1.17-1.47-0.39-4.97-1.31-5.21-1.38 1.43 1.01 2.88 2 4.31 3l0.09 0.06c-0.16 0.39-0.35 0.78-0.51 1.18-2.33-0.55-4.66-1.15-6.99-1.72 0.02-0.04 0.05-0.12 0.06-0.15 0.12-0.3 0.26-0.6 0.39-0.9 1.81 0.49 3.62 1.01 5.43 1.49-0.21-0.15-0.78-0.54-0.85-0.6-1.26-0.86-2.53-1.71-3.78-2.6 0 0 0.34-0.73 0.5-1.06 1.81 0.5 3.64 0.98 5.45 1.48-0.17-0.13-0.36-0.25-0.55-0.37-1.34-0.98-2.76-1.89-4.12-2.84 0.02 0.01 0.34-0.69 0.48-1.01"/>
<path d="m42.75 80.95c-0.08 1-0.19 2.01-0.49 2.98-0.2 0.69-0.83 1.25-1.56 1.28-0.79 0.01-1.57-0.14-2.35-0.23-0.14-0.02-0.28-0.04-0.42-0.05 0.21-1.52 0.42-3.04 0.63-4.55 0.11-0.74 0.21-1.48 0.3-2.22 0 0 1.26 0.15 1.87 0.24m-0.01-0.02c0.6 0.1 1.27 0.19 1.66 0.7m-2.71-0.1c-0.25 1.76-0.48 3.52-0.72 5.28 0.34 0.04 0.68 0.1 1.02 0.13 0.3 0.03 0.63 0.05 0.92-0.08 0.33-0.19 0.5-0.54 0.58-0.92 0.19-0.88 0.32-1.76 0.39-2.65 0.02-0.46 0.05-1.04-0.35-1.33-0.47-0.3-1.71-0.41-1.84-0.43"/>
<path d="m46.93 10.08c0.51 0.02 0.97 0.06 1.42 0.08 0.21 0.82 0.32 1.67 0.5 2.5 0.29 1.55 0.59 3.11 0.88 4.66-0.41-0.01-0.81-0.02-1.19-0.03-0.11-0.57-0.17-1.11-0.27-1.72l-0.01-0.08c-0.74-0.04-1.37-0.08-2.08-0.1-0.16 0.55-0.38 1.11-0.54 1.66 0 0-0.8-0.04-1.21-0.08-0.02-0.01 1.68-4.61 2.5-6.89m0.57 0.99c0 0.06-1.04 3.38-1.06 3.43 0.69 0.03 1.03 0.05 1.64 0.08-0.11-0.82-0.48-2.98-0.58-3.51"/>
<path d="m53.11 10.81c0.34 0.09 0.77 0.19 1.11 0.26 0 0-1.14 4.61-1.67 6.86-0.35-0.09-1.14-0.26-1.14-0.26 0.1-0.39 1.23-4.97 1.7-6.86"/>
<path d="m70.22 19.75c0.26 0.24 0.58 0.54 0.84 0.78 0 0-3.26 3.45-4.83 5.16-0.26-0.25-0.87-0.78-0.87-0.78 0.29-0.3 3.52-3.73 4.86-5.16"/>
<path d="m64.9 15.68c0.29 0.23 0.6 0.43 0.9 0.64-1.12 1.54-2.22 3.09-3.33 4.64-0.08 0.11-0.15 0.22-0.23 0.33 0.73 0.53 1.47 1.06 2.2 1.59-0.2 0.29-0.58 0.77-0.58 0.77s-2.07-1.48-3.09-2.24c1.39-1.9 2.75-3.83 4.13-5.73"/>
<path d="m59.92 13.04c0.39 0.18 0.76 0.47 0.91 0.88 0.17 0.4 0.08 0.84-0.01 1.25-0.25 0.62-0.69 1.25-1.4 1.36-0.13 0-0.26-0.02-0.38-0.03 0.27 0.22 0.56 0.48 0.58 0.85 0.02 0.38-0.13 0.75-0.23 1.11-0.13 0.34-0.18 0.6-0.3 0.94-0.09 0.32-0.14 0.86-0.14 0.86-0.17-0.05-1.07-0.48-1.07-0.48s-0.01-0.64 0.36-1.48c0.15-0.42 0.37-0.86 0.22-1.32-0.33-0.48-0.96-0.58-1.46-0.83-0.38 0.94-0.79 1.88-1.14 2.83-0.36-0.12-0.7-0.28-1.06-0.41 0.34-1.06 0.87-2.04 1.26-3.07 0.48-1.16 0.92-2.33 1.42-3.48 0.81 0.35 1.63 0.67 2.44 1.02m-1.01 0.48c-0.25-0.12-0.5-0.21-0.69-0.29 0 0-0.63 1.43-0.87 2.15 0.43 0.16 0.85 0.38 1.31 0.43 0.33 0.02 0.61-0.14 0.82-0.43 0.17-0.31 0.28-0.68 0.29-1.03-0.1-0.41-0.48-0.66-0.86-0.83"/>
<path d="m68.04 27.39c1.87-1.43 3.75-2.84 5.63-4.26 0.09 0.12 0.61 0.79 0.8 1.05-0.84 1.48-2.85 4.71-2.94 4.88 1.4-1.05 2.79-2.11 4.2-3.15 0 0 0.41 0.49 0.64 0.8-1.86 1.44-3.76 2.84-5.63 4.26-0.24-0.32-0.89-1.13-0.89-1.13s2.27-3.44 3.12-4.86c-0.19 0.13-3.04 2.32-4.31 3.25-0.21-0.28-0.43-0.55-0.62-0.84"/>
<path d="m72.08 33.19c2.13-0.99 4.27-1.98 6.39-2.98 0.26 0.54 1.59 3.48 1.59 3.48s-0.56 0.25-0.85 0.37c-0.34-0.82-0.74-1.62-1.1-2.44-0.6 0.24-1.17 0.56-1.78 0.8 0.31 0.79 0.7 1.54 1.04 2.32-0.29 0.13-0.57 0.27-0.86 0.4-0.35-0.77-0.72-1.54-1.06-2.31-0.69 0.31-1.34 0.63-2.05 0.94 0.37 0.85 0.79 1.68 1.18 2.53-0.28 0.14-0.57 0.28-0.86 0.41-0.1-0.23-0.21-0.46-0.32-0.69-0.43-0.93-0.88-1.88-1.32-2.83"/>
<path d="m11.4 65.6l0.44 0.89 5.27-4.91-0.48-0.98-7.14 1.07 0.43 0.89 1.71-0.3 1.07 2.19-1.3 1.15zm1.07-3.49l3.43-0.56-2.57 2.33-0.86-1.77z"/>
<path d="m14.42 70.27l0.71 0.84 3.97-1.97c0.35-0.17 0.92-0.43 1.66-0.93-0.53 0.56-0.95 1.03-1.23 1.42l-2.65 3.55 0.69 0.83 6.41-3.08-0.57-0.68-4.75 2.42c-0.34 0.17-0.67 0.35-0.97 0.54 0.3-0.3 0.55-0.59 0.76-0.86l3.18-4.22-0.63-0.72-4.81 2.41c-0.12 0.06-0.43 0.23-0.94 0.52 0.34-0.36 0.58-0.62 0.72-0.82l3.23-4.25-0.59-0.7-4.19 5.7z"/>
<path d="m25.01 79.92l0.81 0.57 2.23-6.85-0.89-0.63-5.72 4.4 0.81 0.56 1.35-1.1 2 1.4-0.59 1.65zm-0.76-3.57l2.73-2.15-1.12 3.28-1.61-1.13z"/>
<path d="m33.79 76.51l-1.69-0.65-2.47 6.43 0.85 0.33 1.13-2.94 1.02 0.39c0.57 0.22 0.64 0.56 0.4 1.24-0.26 0.76-0.57 1.4-0.61 2.05l0.87 0.33c0.04-0.45 0.15-0.89 0.33-1.38 0.07-0.19 0.16-0.4 0.26-0.65 0.33-0.87 0.26-1.36-0.44-1.72 0.84 0.08 1.39-0.3 1.71-1.15 0.43-1.07-0.01-1.76-1.36-2.28zm-1.91 2.48l0.82-2.12 0.96 0.37c0.67 0.26 0.88 0.71 0.62 1.36-0.32 0.82-0.87 0.98-1.77 0.64l-0.63-0.25z"/>
<path d="m38.92 84.23l0.75-5.31 0.96 0.13c0.73 0.1 1.11 0.32 1.25 0.95 0.04 0.15 0.02 0.79-0.13 1.88-0.16 1.12-0.31 1.83-0.58 2.17-0.26 0.32-0.65 0.39-1.28 0.3l-0.97-0.12zm-1.02 0.65l1.64 0.23c1.02 0.14 1.7 0.19 2.3-0.48 0.43-0.48 0.6-1.31 0.77-2.49 0.21-1.5 0.32-2.45-0.2-3.1-0.42-0.52-1.03-0.63-1.9-0.75l-1.64-0.23-0.97 6.82z"/>
<path d="m46.27 83.58c0.01 0.08 0 0.15 0.01 0.21 0.11 1.26 0.84 1.83 2.17 1.71 1.34-0.12 2.04-0.88 1.93-2.08-0.07-0.8-0.56-1.15-1.49-1.65-1.16-0.62-1.84-0.88-1.91-1.63-0.05-0.52 0.35-0.97 0.99-1.03 0.67-0.06 1.04 0.29 1.11 1.03 0 0.05 0.01 0.09 0.01 0.14l0.94-0.08c0-0.06-0.01-0.11-0.02-0.17-0.1-1.17-0.83-1.74-2.07-1.63-1.23 0.11-1.97 0.9-1.88 1.93 0.09 0.98 0.64 1.32 1.71 1.88 1.02 0.53 1.63 0.77 1.69 1.43 0.05 0.6-0.38 1.09-1.06 1.15-0.72 0.06-1.04-0.3-1.12-1.17 0-0.04-0.01-0.09-0.01-0.12l-1 0.08z"/>
<path d="m61.14 82.02l3.16-1.68-0.37-0.7-2.27 1.21 0.36-2.68c0.14-1.08 0.07-1.9-0.23-2.48-0.44-0.82-1.25-1.01-2.21-0.51-1.04 0.55-1.33 1.36-0.85 2.28 0.03 0.05 0.07 0.11 0.09 0.16l0.82-0.44c-0.32-0.69-0.27-1.09 0.24-1.36 0.46-0.25 0.92-0.11 1.15 0.32 0.14 0.27 0.23 0.83 0.14 1.59l-0.43 3.54 0.4 0.75z"/>
<path d="m66.53 74.81c-1.17-1.45-1.68-2.12-0.92-2.74 0.76-0.61 1.31 0.01 2.49 1.47s1.67 2.12 0.92 2.74c-0.76 0.62-1.31-0.02-2.49-1.47zm-1.38-3.32c-0.5 0.41-0.74 0.91-0.72 1.46 0.04 0.69 0.6 1.38 1.43 2.41 0.84 1.03 1.4 1.73 2.06 1.9 0.53 0.14 1.06 0 1.57-0.41s0.75-0.9 0.72-1.44c-0.03-0.66-0.55-1.32-1.33-2.28-0.04-0.04-0.07-0.09-0.11-0.13s-0.07-0.09-0.11-0.13c-0.77-0.95-1.31-1.61-1.96-1.78-0.51-0.15-1.04-0.01-1.55 0.4z"/>
<path d="m75.37 70.61l-5.18-4.2-0.42 0.51c-0.01 0.64-0.04 1.12-0.12 1.44l0.71 0.58c0.06-0.59 0.09-0.99 0.08-1.22l4.39 3.55 0.54-0.66z"/>
<path d="m73.98 61.79c0.29-0.59 0.86-0.6 1.87-0.11 0.78 0.38 1.05 0.86 0.79 1.39-0.27 0.56-0.8 0.6-1.64 0.19-0.94-0.46-1.28-0.93-1.02-1.47zm3.89 2.67l-0.4 0.81c0.02 0.01 0.04 0.02 0.05 0.03 0.83 0.4 1.6 0.09 2.04-0.81 0.31-0.64 0.28-1.22-0.1-1.71-0.42-0.54-1.19-0.96-2.3-1.5-2.09-1.02-3.18-1.24-3.85 0.16-0.55 1.12-0.13 1.89 1.28 2.58 1.29 0.63 2.19 0.43 2.66-0.53 0.2-0.41 0.17-0.83-0.08-1.19 0.13 0.06 0.26 0.11 0.37 0.17 1.23 0.6 1.68 1.05 1.36 1.71-0.17 0.39-0.52 0.48-1.03 0.28z" clip-rule="evenodd" fill-rule="evenodd"/>
</svg>
