<svg xmlns="http://www.w3.org/2000/svg" viewBox="0 0 259 86"><g fill="none"><path fill="#FFF" d="M.9 84.1l6-11.2H7l5.7 11.2h-2.2l-1-1.9H4l-1 1.9H.9zm7.9-3.5l-2-4-2 4h4zm3.7-7.3h2.2l2.6 6.5 2.8-6.9h.2l2.9 6.9 2.5-6.5h2l-4.5 11.2H23l-2.9-6.8-2.8 6.8h-.2zm15.2 10.8l6-11.2h.2l5.8 11.2h-2.2l-1-1.9H31l-1 1.9h-2.3zm7.9-3.5l-2-4-2 4h4zm6.5-7.3h2.8c1.5 0 2.7.1 3.8.7.9.6 1.4 1.4 1.4 2.3 0 1.4-.9 2.5-2.7 3l3.9 4.8h-2.5l-3.7-4.5h-1v4.5H42V73.3h.1zm3 4.9c1.9 0 2.8-.6 2.8-1.7 0-1.2-1-1.7-3-1.7h-.8v3.4h1zm9.1-4.9h2.9c4.7 0 7.3 2.2 7.3 5.4 0 2-1 3.6-3 4.6-1.3.7-2.6.8-4.3.8h-2.9V73.3zm3.2 9.1c3.1 0 4.8-1.5 4.8-3.7 0-2.3-1.7-3.7-4.8-3.7h-1.1v7.4h1.1zm12.7.4c1.3 0 2.1-.7 2.1-1.5s-.6-1.3-1.8-2l-.9-.5c-1.7-.9-2.6-1.7-2.6-3.1 0-1.7 1.5-2.9 3.7-2.9 1.1 0 2 .2 3 .7l-.1 1.7a6.4 6.4 0 00-2.8-.9c-1.2 0-1.8.5-1.8 1.2s.5 1.1 1.7 1.7l.9.5c1.8 1 2.8 1.9 2.8 3.4 0 1.9-1.6 3.2-4.2 3.2-1.1 0-2.3-.2-3.3-.6l-.2-2.1c1.4.8 2.5 1.2 3.5 1.2M2.6 44h2.1c1.3 0 2.3.1 3.1.6.8.5 1.2 1.2 1.2 2 0 1.8-1.5 2.8-4.3 2.8h-1V53H2.5v-9h.1zm2.2 4.6c2 0 3-.7 3-1.9 0-1.3-1.1-1.8-3.2-1.8h-.8v3.7h1zm7.8-4.9h.1l4.7 9.2h-1.3L15 50.7h-4.7L9.1 53H7.9l4.7-9.3zm2 6.1l-1.9-4-2 4h3.9zm6 2.5c1.3 0 2.1-.7 2.1-1.6 0-.9-.7-1.4-2-1.9l-.7-.3c-1.5-.6-2.2-1.5-2.2-2.5 0-1.3 1.2-2.3 2.9-2.3a6 6 0 012.4.6v1.1c-.9-.6-1.6-.9-2.5-.9-1.1 0-1.8.6-1.8 1.3 0 .8.6 1.3 1.9 1.8l.7.3c1.6.6 2.4 1.6 2.4 2.7 0 1.5-1.3 2.6-3.2 2.6-.9 0-1.9-.2-2.9-.7l-.1-1.3c1.2.8 2.1 1.1 3 1.1m7.3 0c1.3 0 2.1-.7 2.1-1.6 0-.9-.7-1.4-2-1.9l-.7-.3c-1.5-.6-2.2-1.5-2.2-2.5 0-1.3 1.2-2.3 2.9-2.3a6 6 0 012.4.6v1.1c-.9-.6-1.6-.9-2.5-.9-1.1 0-1.8.6-1.8 1.3 0 .8.6 1.3 1.9 1.8l.7.3c1.6.6 2.4 1.6 2.4 2.7 0 1.5-1.3 2.6-3.2 2.6-.9 0-1.9-.2-2.9-.7v-1.2c1.1.7 2 1 2.9 1m5-8.3h5.6v.9h-4.4v2.9h3.8v.9h-3.8V52h4.4v1h-5.6zm7.5-.3h.2l6.7 7V44h1.2v9.3h-.2l-6.7-7.1V53h-1.2zm14.8 9.6c-3 0-5.2-2-5.2-4.8s2.2-4.8 5.3-4.8c1.2 0 2.2.3 3.2.8l-.1 1.1c-1.1-.7-2.1-1-3.2-1-2.3 0-4 1.6-4 3.9 0 2.2 1.6 3.8 4 3.8.9 0 1.7-.2 2.6-.6v-2.3h-3v-.9H59v3.9c-1.4.6-2.6.9-3.8.9m5.6-9.3h5.5v.9H62v2.9h3.7v.9H62V52h4.4v1h-5.6zm7.5 0h2.1c2.9 0 4.3 1 4.3 2.6 0 1.3-1 2.3-2.6 2.5l3.6 3.8h-1.5l-3.5-3.7h-1.3V53h-1.2l.1-9zm2.2 4.5c2 0 3-.7 3-1.8 0-1.3-1.1-1.8-3.2-1.8h-.8v3.6h1zM9 69.7c-1.7 0-3.4-.5-4.7-1.5a7 7 0 01-2.9-5.8c0-4.2 3.3-7.3 7.7-7.3 1.6 0 3 .4 4.4 1.3l-.2 1.7a6.8 6.8 0 00-4.2-1.5 5.6 5.6 0 00-5.9 5.8c0 3.3 2.4 5.7 5.8 5.7 1.6 0 3.1-.6 4.6-1.7l-.1 1.9A8 8 0 019 69.7m6.9-14.1h1.8v5.7h8.4v-5.7h1.8v13.7h-1.8v-6.5h-8.4v6.5h-1.8zm16.6 1.7a7.6 7.6 0 0110.5 0 7.3 7.3 0 012.2 5.2 7.2 7.2 0 01-7.4 7.3c-1.9 0-3.9-.7-5.2-2.1a7.1 7.1 0 01-2.2-5.2c-.1-2.1.6-3.9 2.1-5.2m5.2 10.9c3.1 0 5.6-2.4 5.6-5.7 0-3.3-2.5-5.8-5.6-5.8a5.6 5.6 0 00-5.6 5.8c0 3.3 2.5 5.7 5.6 5.7m9.9-12.6h1.8v13.6h-1.8zm11.8 14.1c-1.7 0-3.4-.5-4.7-1.5a7 7 0 01-2.9-5.8c0-4.2 3.3-7.3 7.7-7.3 1.6 0 3.1.4 4.4 1.3l-.2 1.7a7 7 0 00-4.2-1.5 5.6 5.6 0 00-5.9 5.8c0 3.3 2.4 5.7 5.8 5.7a8 8 0 004.7-1.7l-.1 2a9.1 9.1 0 01-4.6 1.3m6.9-14.1h8.4V57h-6.6v4.5h5.7v1.3h-5.7v5h6.7v1.5h-8.5zm9.2 18.5h-.8v-.3h1.8v.3h-.8v2.2h-.3v-2.2zm3.5 1.1v-1.1l-.3.9-.4 1.2h-.2l-.4-1.2-.3-1v1.1l-.1 1.1H77l.2-2.5h.4l.4 1.2.2.8.3-.8.4-1.2h.4l.2 2.5H79v-1zM44.6.5a1 1 0 00-.3.5l-2.1 6.4-.3 1.7.3 1.4 1-2.4.3-.6c.2-.1.3 0 .4.3.9 3 2.3 5.7 4.2 8l.8-.8a23.9 23.9 0 01-2.9-4.6c-.1-.3-.1-.9.1-1.2l.6-1.3A32.3 32.3 0 0144.6.5"/><g transform="translate(41)"><mask id="a" fill="#fff"><path d="M3.6.5a1 1 0 00-.3.5L1.2 7.4.9 9.1l.3 1.4 1-2.4.3-.6c.2-.1.3 0 .4.3.9 3 2.3 5.7 4.2 8l.8-.8A23.9 23.9 0 015 10.4c-.1-.3-.1-.9.1-1.2l.6-1.3A32.3 32.3 0 013.6.5"/></mask><path fill="#FFF" d="M-6.6 6.3L5.3-2.9l10.1 13-11.9 9.2z" mask="url(#a)"/></g><path fill="#FFF" d="M48.1 5.4l-.2.2L46.8 8c.8 1.8 1.7 3.5 2.9 5 .3.4.3 1 0 1.3l-.7.8 2.5 2.6c.3.2.7.3 1 .1l1.3-.9a25.7 25.7 0 01-4.4-4.9c-.2-.3-.2-.7 0-.9l1.1-1.7c-.7-1.2-1.4-2.4-2-3.8-.1-.3-.3-.4-.4-.2"/><g transform="translate(38 17)"><mask id="b" fill="#fff"><path d="M1.1 2.9c-.3.5-.4 1-.4 1.2a6.1 6.1 0 003.4 3.3h1.5a110.3 110.3 0 006.5-1.3c.2-.1.1-.3-.2-.4l-1.7-1-2.1.7c-.6.2-1.3.2-1.5 0A11 11 0 012.4.5L1.1 2.9"/></mask><path fill="#FFF" d="M-2.8 4l9.2-9.3L15.7 4l-9.3 9.2z" mask="url(#b)"/></g><path fill="#FFF" d="M51.1 8.5l-.1.1-.5.8a30 30 0 004.5 5.5c.3.3.4.7.1.9l-1.4 1 1.3 1c.3.2.7.2.9.1l2.3-1.4c.2-.1.1-.4-.2-.7a31.7 31.7 0 01-6.5-7.2c-.1-.2-.3-.3-.4-.3.1.1 0 .2 0 .2"/><g transform="translate(50 8)"><mask id="c" fill="#fff"><path d="M1.1.5L1 .6l-.5.8A30 30 0 005 6.9c.3.3.4.7.1.9l-1.4 1 1.3 1c.3.2.7.2.9.1l2.3-1.4c.2-.1.1-.4-.2-.7A31.7 31.7 0 011.5.6C1.4.4 1.2.3 1.1.3c.1.1 0 .2 0 .2"/></mask><path fill="#FFF" d="M-4.2 4.1l9.7-7.5 7.6 9.9L3.5 14z" mask="url(#c)"/></g><g transform="translate(40 10)"><mask id="d" fill="#fff"><path d="M.4 5C.1 5.6 0 6.4 0 6.6l.3.9 1.4-2.9.3-.4c.2-.1.3-.1.4.2 1.1 3 3.1 5.5 5.8 7.4l3.6-1.4.2-.1c.3-.2.3-.6-.1-.9A24 24 0 018.2 6L6.7 7.5c-.3.2-.7.2-.9 0-1.6-2-2.7-4.2-3.4-6.8C1.6 2.1 1 3.5.4 5"/></mask><path fill="#FFF" d="M8.4-5.2l9 13.4-13.6 9.2L-5.3 4z" mask="url(#d)"/></g><path fill="#FFF" d="M23.3 36v-1c-.6.8-1.7 1.2-2.8 1.2-1.4 0-3-1-3-2.9 0-2 1.6-2.8 3-2.8 1.2 0 2.2.4 2.8 1.1v-1.3c0-1-.8-1.6-2-1.6-1 0-1.8.4-2.6 1.1l-.8-1.3a5 5 0 013.6-1.4c1.9 0 3.6.8 3.6 3.1V36h-1.8zm0-2v-1.3c-.4-.6-1.3-.9-2.1-.9-1.1 0-1.9.6-1.9 1.6 0 .9.8 1.6 1.9 1.6.8-.1 1.6-.4 2.1-1m6.4.8v6.3h-1.9V27.3h1.9v1.2c.6-.9 1.6-1.4 2.8-1.4 2.2 0 3.8 1.7 3.8 4.5s-1.6 4.5-3.8 4.5c-1.1.1-2.1-.4-2.8-1.3m4.6-3.2c0-1.7-1-2.9-2.5-2.9-.9 0-1.8.5-2.2 1.1v3.4c.4.6 1.3 1.2 2.2 1.2 1.6.1 2.5-1.1 2.5-2.8m3.8 0c0-2.5 1.8-4.5 4.4-4.5 2.6 0 4.2 2 4.2 4.7v.5H40a2.6 2.6 0 002.7 2.4c.9 0 1.8-.3 2.5-1l.9 1.2c-.9.8-2.1 1.3-3.5 1.3-2.6 0-4.5-1.8-4.5-4.6m4.3-3c-1.6 0-2.3 1.2-2.4 2.3h4.9c-.1-1-.8-2.3-2.5-2.3M54.6 36l-2.2-3.2-2.2 3.2H48l3.2-4.5-3-4.2h2.2l2 2.9 2.1-2.9h2.1l-3 4.2 3.2 4.5zm35.2 23h5.6l-.6 4.1h-9.9l4.5-32.4h9.9l-.6 4.1h-5.6l-1.4 9.9h4.8l-.6 4h-4.8zm18-5.9l.6-6.1.8-6.1 1.4-10.3h3.9L110 63h-4.1l-2.4-22.4-.6 6-.7 6.2-1.4 10.2h-3.9l4.5-32.4h4.1l2.3 22.5zm11.2 10h-4.3l3.9-28.3H115l.6-4.1h11.6l-.6 4.1h-3.7zm9.7-4.1h5.6l-.6 4.1h-9.9l4.5-32.4h9.9l-.6 4.1H132l-1.4 9.9h4.8l-.6 4H130zm11.6-28.3h6.5a7 7 0 012.7.4c.7.3 1.2.6 1.5 1.1.3.5.5 1.1.6 1.8.1.7 0 1.4-.1 2.3l-1.1 7.7a9.7 9.7 0 01-1.1 3.4c-.5.9-1.4 1.5-2.6 1.8l1.4 6.9 1.3 6.9h-4.7l-1-6.8-1-6.9h-.7L140.1 63h-4.3l4.5-32.3zm4.1 14.8c.6 0 1-.1 1.3-.4.3-.3.4-.7.5-1.2l1-7.4c.2-1.1-.3-1.6-1.3-1.6H144l-1.5 10.6h1.9zm12 17.6h-4.3l3.9-28.3h-3.6l.6-4.1h11.6l-.6 4.1h-3.7zm15.5 0h-4.4l.3-6.7h-3.6l-1.5 6.7h-4.4l8.6-32.4h5.5l-.5 32.4zM169 36l-1.9 8.2-1.8 8.2h2.8l.4-8.3.5-8.1zm8.6-5.3h4.3l-4.5 32.4h-4.3zm13.5 22.4l.6-6.1.8-6.1 1.4-10.3h3.9L193.3 63h-4.1l-2.4-22.4-.6 6-.7 6.2-1.4 10.2h-3.9l4.5-32.4h4.1l2.3 22.5zm12.4 10l-.6-25-2 18.3-.9 6.7h-4l4.5-32.4h5.3l.3 23.7 7-23.7h5.3l-4.5 32.4h-4l.9-6.7 3.1-18.3-7.5 25zm18-4.1h5.6l-.6 4.1h-9.9l4.5-32.4h9.9l-.6 4.1h-5.6l-1.4 9.9h4.8l-.6 4h-4.8zm18-5.9l.6-6.1.8-6.1 1.4-10.3h3.9L241.7 63h-4.1l-2.4-22.4-.6 6-.7 6.2-1.4 10.2h-3.9l4.5-32.4h4.1l2.3 22.5zm11.2 10h-4.3l3.9-28.3h-3.6l.6-4.1h11.6l-.6 4.1h-3.7z"/><text fill="#FFF" font-family="Emirates-MediumItalic, Emirates" font-size="21" font-style="italic" font-weight="500"><tspan x="82.6" y="84.3">Winner 20</tspan> <tspan x="173" y="84.3">20</tspan></text><path fill="#FFF" d="M90.3 25.8c-.4-.7-.3-1.4-.1-2.4l2.1-9.8c.2-1.2.2-1.9-.2-2.3h5.5c1.9 0 4.1.9 3.6 3.4a4.2 4.2 0 01-2.8 3c1.5.5 2.5 1.6 2.1 3.5-.6 3.1-2.9 4.6-6 4.6h-4.2zm3.7-1.4c2.1 0 3.3-1 3.8-3.2.4-1.8-.5-3-2-3H94L93 23c-.1.5-.2 1-.1 1.3H94v.1zm1.8-7.4c1.5 0 2.5-1.2 2.7-2.3.3-1.4-.4-2-2-2H95l-.1 1.3-.7 3.1h1.6V17zm14.1 8c-.7.5-2 1-3.4 1-2.9 0-4.3-2.4-3.7-5.3.6-3.2 3.1-5.8 6.2-5.8 2.2 0 3.2 1.1 2.9 2.7-.3 1.6-1.6 2.3-3.3 3-.5.2-3.1 1.4-3.2 2-.2.9.2 2.4 1.4 2.4 1.1 0 1.9-.6 2.7-1.7l.4 1.7zm-4.4-4.2l-.1.3c.5-.5 1.2-.9 1.8-1.3 1.1-.6 1.9-1.1 2.2-2.3.2-.8-.2-1.4-1-1.4-1.2 0-2.5 2.6-2.9 4.7zm7.4 2.4c.5 1 1.1 1.7 1.9 1.7.9 0 1.5-.6 1.7-1.5.2-1-.2-1.7-1.4-2.7-1.4-1.2-2-2.1-1.7-3.2.4-1.8 2.1-2.6 3.7-2.6 1.1 0 2.1.3 3.1.9l-1.2 1.8c-.7-1.2-1.3-1.6-1.9-1.6-.7 0-1.2.4-1.3 1-.1.7.2 1.2 1.2 1.9 1.4 1.1 2.4 2.2 2 3.8-.4 1.9-2.4 3.2-4.4 3.2a5 5 0 01-3-1l1.3-1.7zm10.7.3a4 4 0 000 2.3h-2.3c-.3-.5-.4-1.2-.2-2.3l1.5-7h-1.4l.3-1.4c1.3 0 2.2-.4 3-1a6 6 0 001.4-1.3l-.5 2.3h.9c1 0 1.6.5 1.6 1.7-.5-.3-1.2-.3-1.8-.3h-.9l-1.6 7z"/></g></svg>