<?xml version="1.0" encoding="utf-8"?>
<!-- Generator: Adobe Illustrator 16.0.4, SVG Export Plug-In . SVG Version: 6.00 Build 0)  -->
<!DOCTYPE svg PUBLIC "-//W3C//DTD SVG 1.1//EN" "http://www.w3.org/Graphics/SVG/1.1/DTD/svg11.dtd">
<svg version="1.1" id="Layer_1" xmlns="http://www.w3.org/2000/svg" xmlns:xlink="http://www.w3.org/1999/xlink" x="0px" y="0px"
	 width="128px" height="128px" viewBox="0 0 128 128" enable-background="new 0 0 128 128" xml:space="preserve">
<path d="M128,115.938c0,6.627-5.373,12-12,12H12c-6.627,0-12-5.373-12-12V12.062c0-6.627,5.373-12,12-12h104c6.627,0,12,5.373,12,12
	V115.938z"/>
<path fill="#FFFFFF" d="M88.016,127.748V79.55h16.547l2.479-19.155H88.016V48.166c0-5.545,1.545-9.325,9.522-9.325l10.174-0.004
	V21.704c-1.761-0.232-7.799-0.754-14.825-0.754c-14.67,0-24.714,8.926-24.714,25.32v14.126H51.581v19.155h16.592v48.198H12.5V128
	h103v-0.252H88.016z"/>
</svg>
