<?xml version="1.0" encoding="utf-8"?>
<!-- Generator: Adobe Illustrator 16.0.4, SVG Export Plug-In . SVG Version: 6.00 Build 0)  -->
<!DOCTYPE svg PUBLIC "-//W3C//DTD SVG 1.1//EN" "http://www.w3.org/Graphics/SVG/1.1/DTD/svg11.dtd">
<svg version="1.1" id="Layer_1" xmlns="http://www.w3.org/2000/svg" xmlns:xlink="http://www.w3.org/1999/xlink" x="0px" y="0px"
	 width="128px" height="128px" viewBox="0 0 128 128" enable-background="new 0 0 128 128" xml:space="preserve">
<path d="M128,115.938c0,6.627-5.373,12-12,12H12c-6.627,0-12-5.373-12-12V12.062c0-6.627,5.373-12,12-12h104c6.627,0,12,5.373,12,12
	V115.938z"/>
<g>
	<path fill="#FFFFFF" d="M64.003,42.005c-12.15,0-21.998,9.844-21.998,21.974c0,12.166,9.848,22.005,21.998,22.005
		c12.143,0,21.987-9.84,21.983-22.005C85.988,51.849,76.146,42.005,64.003,42.005z M64.003,78.527
		c-8.025,0-14.539-6.506-14.539-14.549c0-8.01,6.516-14.521,14.539-14.521c8.02,0,14.53,6.511,14.532,14.521
		C78.535,72.021,72.023,78.527,64.003,78.527z"/>
	<path fill="#FFFFFF" d="M86.863,46.28c-2.84,0-5.141-2.299-5.141-5.142c0-2.848,2.301-5.15,5.141-5.15
		c2.836,0,5.137,2.304,5.137,5.15C92,43.98,89.699,46.28,86.863,46.28z"/>
	<path fill="#FFFFFF" d="M106.57,46.339c-0.213-4.562-0.938-7.664-1.996-10.407c-1.088-2.814-2.566-5.194-4.941-7.561
		c-2.371-2.396-4.752-3.864-7.578-4.954c-2.725-1.051-5.836-1.784-10.404-1.984c-4.562-0.227-6.018-0.267-17.644-0.267
		c-11.641,0-13.092,0.04-17.664,0.267c-4.557,0.199-7.658,0.933-10.396,1.984c-2.827,1.09-5.203,2.559-7.574,4.954
		c-2.387,2.365-3.861,4.744-4.951,7.561c-1.051,2.743-1.78,5.847-1.99,10.407c-0.217,4.571-0.256,6.023-0.256,17.64
		c0,11.646,0.041,13.096,0.256,17.667c0.21,4.571,0.938,7.676,1.99,10.412c1.09,2.812,2.564,5.202,4.951,7.568
		c2.372,2.382,4.748,3.855,7.572,4.948c2.737,1.06,5.839,1.778,10.396,1.998c4.571,0.215,6.023,0.261,17.664,0.261
		c11.626,0,13.085-0.051,17.646-0.261c4.566-0.22,7.68-0.938,10.404-1.998c2.82-1.093,5.205-2.567,7.578-4.948
		c2.375-2.363,3.855-4.752,4.941-7.568c1.059-2.738,1.783-5.84,1.996-10.412c0.217-4.572,0.254-6.021,0.254-17.667
		C106.824,52.362,106.787,50.91,106.57,46.339z M100.621,80.664c-0.205,4.363-0.951,6.807-1.586,8.447
		c-0.865,2.222-1.949,3.904-3.648,5.596c-1.715,1.716-3.389,2.799-5.615,3.654c-1.613,0.632-4.051,1.391-8.414,1.587
		c-4.443,0.19-5.762,0.229-16.684,0.229c-10.932,0-12.254-0.041-16.687-0.229c-4.376-0.196-6.804-0.955-8.438-1.601
		c-2.216-0.845-3.896-1.934-5.598-3.643c-1.688-1.694-2.777-3.377-3.641-5.612c-0.636-1.6-1.395-4.038-1.587-8.429
		c-0.196-4.402-0.236-5.727-0.236-16.692c0-10.932,0.039-12.256,0.236-16.668c0.193-4.379,0.951-6.804,1.593-8.435
		c0.852-2.216,1.947-3.887,3.635-5.588c1.693-1.694,3.374-2.789,5.62-3.649c1.612-0.622,4.039-1.395,8.407-1.584
		c4.44-0.19,5.759-0.242,16.693-0.242c10.924,0,12.24,0.055,16.682,0.242c4.365,0.191,6.805,0.951,8.432,1.591
		c2.225,0.841,3.904,1.934,5.598,3.635c1.695,1.711,2.789,3.384,3.65,5.606c0.633,1.648,1.381,4.076,1.584,8.417
		c0.197,4.456,0.236,5.774,0.236,16.679c0.002,10.952-0.035,12.263-0.232,16.684V80.664h0.002l0,0H100.621z"/>
</g>
</svg>
