<?xml version="1.0" encoding="utf-8"?>
<!-- Generator: Adobe Illustrator 16.0.4, SVG Export Plug-In . SVG Version: 6.00 Build 0)  -->
<!DOCTYPE svg PUBLIC "-//W3C//DTD SVG 1.1//EN" "http://www.w3.org/Graphics/SVG/1.1/DTD/svg11.dtd">
<svg version="1.1" id="Layer_1" xmlns="http://www.w3.org/2000/svg" xmlns:xlink="http://www.w3.org/1999/xlink" x="0px" y="0px"
	 width="128px" height="128px" viewBox="0 0 128 128" enable-background="new 0 0 128 128" xml:space="preserve">
<path d="M128,115.938c0,6.627-5.373,12-12,12H12c-6.627,0-12-5.373-12-12V12.062c0-6.627,5.373-12,12-12h104c6.627,0,12,5.373,12,12
	V115.938z"/>
<rect x="24.103" y="50.086" fill="#FFFFFF" width="17.05" height="54.844"/>
<path fill="#FFFFFF" d="M32.628,42.591c-5.462,0-9.878-4.426-9.878-9.881c0-5.459,4.416-9.888,9.878-9.888
	c5.45,0,9.878,4.429,9.878,9.888C42.505,38.165,38.078,42.591,32.628,42.591z"/>
<path fill="#FFFFFF" d="M105.001,104.93H87.962V78.258c0-6.361-0.112-14.542-8.856-14.542c-8.871,0-10.224,6.935-10.224,14.084
	v27.132H51.843V50.086h16.349v7.498h0.234c2.276-4.313,7.835-8.857,16.129-8.857c17.26,0,20.445,11.355,20.445,26.123
	L105.001,104.93L105.001,104.93z"/>
</svg>
