<?xml version="1.0" encoding="utf-8"?>
<!-- Generator: Adobe Illustrator 16.0.4, SVG Export Plug-In . SVG Version: 6.00 Build 0)  -->
<!DOCTYPE svg PUBLIC "-//W3C//DTD SVG 1.1//EN" "http://www.w3.org/Graphics/SVG/1.1/DTD/svg11.dtd">
<svg version="1.1" id="Layer_1" xmlns="http://www.w3.org/2000/svg" xmlns:xlink="http://www.w3.org/1999/xlink" x="0px" y="0px"
	 width="128px" height="128px" viewBox="0 0 128 128" enable-background="new 0 0 128 128" xml:space="preserve">
<path d="M128,115.938c0,6.627-5.373,12-12,12H12c-6.627,0-12-5.373-12-12V12.062c0-6.627,5.373-12,12-12h104c6.627,0,12,5.373,12,12
	V115.938z"/>
<g transform="translate(-539.18 -568.86)">
	<path fill="#FFFFFF" d="M588.528,664.956c29.807,0,46.107-24.693,46.107-46.106c0-0.702-0.016-1.4-0.047-2.095
		c3.164-2.287,5.914-5.142,8.084-8.391c-2.904,1.291-6.029,2.159-9.307,2.551c3.346-2.006,5.914-5.18,7.127-8.963
		c-3.131,1.856-6.601,3.205-10.291,3.934c-2.957-3.15-7.166-5.12-11.828-5.12c-8.949,0-16.207,7.257-16.207,16.203
		c0,1.271,0.142,2.508,0.42,3.695c-13.468-0.678-25.411-7.126-33.403-16.931c-1.392,2.395-2.194,5.177-2.194,8.145
		c0,5.622,2.861,10.585,7.211,13.489c-2.659-0.082-5.156-0.812-7.339-2.027c-0.002,0.068-0.002,0.134-0.002,0.207
		c0,7.848,5.585,14.401,13,15.885c-1.362,0.37-2.794,0.569-4.273,0.569c-1.042,0-2.059-0.104-3.046-0.293
		c2.063,6.439,8.045,11.125,15.138,11.256c-5.546,4.349-12.533,6.937-20.126,6.937c-1.307,0-2.597-0.074-3.866-0.226
		c7.172,4.599,15.688,7.279,24.84,7.279"/>
</g>
</svg>
