<?xml version="1.0" encoding="utf-8"?>
<!-- Generator: Adobe Illustrator 16.0.4, SVG Export Plug-In . SVG Version: 6.00 Build 0)  -->
<!DOCTYPE svg PUBLIC "-//W3C//DTD SVG 1.1//EN" "http://www.w3.org/Graphics/SVG/1.1/DTD/svg11.dtd">
<svg version="1.1" id="Layer_1" xmlns="http://www.w3.org/2000/svg" xmlns:xlink="http://www.w3.org/1999/xlink" x="0px" y="0px"
	 width="128px" height="128px" viewBox="0 0 128 128" enable-background="new 0 0 128 128" xml:space="preserve">
<path d="M128,115.875c0,6.627-5.373,12-12,12H12c-6.627,0-12-5.373-12-12V12C0,5.373,5.373,0,12,0h104c6.627,0,12,5.373,12,12
	V115.875z"/>
<path fill="#FFFFFF" d="M105.297,67.12v-6.266c0-6.684-0.823-13.368-0.823-13.368s-0.808-5.691-3.285-8.197
	c-3.139-3.29-6.66-3.307-8.273-3.499c-11.561-0.835-28.896-0.835-28.896-0.835h-0.037c0,0-17.336,0-28.895,0.835
	c-1.615,0.192-5.133,0.209-8.275,3.499c-2.477,2.506-3.283,8.197-3.283,8.197s-0.826,6.684-0.826,13.368v6.266
	c0,6.684,0.826,13.367,0.826,13.367s0.807,5.693,3.283,8.197c3.142,3.291,7.269,3.187,9.107,3.53
	c6.608,0.634,28.083,0.83,28.083,0.83s17.354-0.026,28.914-0.86c1.615-0.192,5.135-0.209,8.274-3.5
	c2.477-2.506,3.283-8.197,3.283-8.197S105.298,73.804,105.297,67.12L105.297,67.12z M55.474,74.715L55.47,51.508l22.317,11.643
	L55.474,74.715z"/>
</svg>
